# Blender 5.0.1
# www.blender.org
mtllib LancerBot.mtl
o AssaultRifle
v 0.545981 1.291175 9.344072
v 0.547674 1.301544 9.347504
v 0.562107 1.303560 9.347205
v 0.966122 1.098772 9.363401
v 1.007775 1.119222 9.362870
v 0.960761 1.128727 9.363470
v 0.993341 1.145721 9.363054
v 1.040767 1.145433 9.362450
v 1.020559 1.171643 9.362707
v 1.023034 1.199006 9.362676
v 1.027982 1.192381 9.362613
v 1.049840 1.223200 9.362333
v 1.066336 1.201022 9.362123
v 0.922820 1.121814 9.363955
v 0.920758 1.090419 9.363980
v 1.064274 1.175388 9.362149
v 1.027570 1.183452 9.362617
v 0.700137 1.143129 9.367947
v 0.699336 1.111157 9.369857
v 0.856010 1.209375 9.364807
v 1.011899 1.206207 9.362818
v 0.867145 1.238178 9.364665
v 1.025920 1.234721 9.362638
v 0.966132 1.098772 9.364207
v 0.960771 1.128727 9.364276
v 1.007785 1.119222 9.363676
v 0.993351 1.145721 9.363860
v 1.040777 1.145433 9.363255
v 1.020569 1.171643 9.363513
v 1.066346 1.201022 9.362928
v 1.027993 1.192381 9.363418
v 1.049850 1.223200 9.363139
v 1.023044 1.199006 9.363482
v 0.920768 1.090419 9.364786
v 0.922830 1.121814 9.364760
v 1.064284 1.175388 9.362955
v 1.027580 1.183452 9.363423
v 0.699346 1.111445 9.370605
v 0.700146 1.143129 9.368695
v 0.856021 1.209375 9.365613
v 0.867156 1.238178 9.365471
v 1.011909 1.206207 9.363624
v 1.025931 1.234721 9.363444
vn -0.0647 0.3230 -0.9442
vn 0.0128 -0.0000 0.9999
vn 0.0190 0.0021 0.9998
vn 0.0201 -0.0005 0.9998
vn 0.0235 0.0590 0.9980
vn 0.0238 0.0539 0.9983
vn -0.0128 -0.0000 -0.9999
vn -0.0200 0.0005 -0.9998
vn -0.0189 -0.0021 -0.9998
vn -0.0236 -0.0544 -0.9982
vn -0.0233 -0.0596 -0.9980
vt 0.615234 0.951965
vt 0.639160 0.934326
vt 0.636230 0.949646
vt 0.498535 0.256836
vt 0.425781 0.586670
vt 0.476563 0.586914
vt 0.437988 0.256836
vt 0.379883 0.256836
vt 0.375977 0.585938
vt 0.324707 0.256836
vt 0.290283 0.587891
vt -0.072937 0.263672
vt -0.097534 0.563232
vt 1.599609 0.607666
vt 1.627930 0.281250
vt 0.926270 0.581787
vt 0.961426 0.256836
vt 0.833984 0.256836
vt 0.785645 0.581787
vt 0.724609 0.256836
vt 0.688477 0.586426
vt 0.608398 0.256836
vt 0.553711 0.588867
vt 1.627930 0.281738
vt 1.599609 0.608154
s 1
usemtl BlurringBlades
f 3/1/1 1/2/1 2/3/1
f 16/4/2 11/5/2 17/6/2
f 13/7/2 11/5/2 16/4/2
f 12/8/2 11/5/2 13/7/2
f 10/9/2 11/5/2 12/8/2
f 12/8/2 23/10/2 10/9/2
f 10/9/2 23/10/2 21/11/2
f 22/12/2 21/11/2 23/10/2
f 20/13/2 21/11/2 22/12/2
f 18/14/5 19/15/6 14/16/3
f 14/16/3 19/15/6 15/17/4
f 4/18/2 14/16/3 15/17/4
f 6/19/2 14/16/3 4/18/2
f 4/18/2 5/20/2 6/19/2
f 6/19/2 5/20/2 7/21/2
f 5/20/2 8/22/2 7/21/2
f 7/21/2 8/22/2 9/23/2
f 8/22/2 17/6/2 9/23/2
f 16/4/2 17/6/2 8/22/2
f 37/6/7 31/5/7 36/4/7
f 36/4/7 31/5/7 30/7/7
f 30/7/7 31/5/7 32/8/7
f 32/8/7 31/5/7 33/9/7
f 32/8/7 33/9/7 43/10/7
f 43/10/7 33/9/7 42/11/7
f 42/11/7 41/12/7 43/10/7
f 40/13/7 41/12/7 42/11/7
f 35/16/9 38/24/10 39/25/11
f 34/17/8 38/24/10 35/16/9
f 34/17/8 35/16/9 24/18/7
f 24/18/7 35/16/9 25/19/7
f 24/18/7 25/19/7 26/20/7
f 26/20/7 25/19/7 27/21/7
f 26/20/7 27/21/7 28/22/7
f 28/22/7 27/21/7 29/23/7
f 37/6/7 28/22/7 29/23/7
f 36/4/7 28/22/7 37/6/7
